# xmcd CD database file
#
# Track frame offsets:
#	150
#	21912
#	47692
#
# Disc length: 925 seconds
#
# Revision: 0
# Processed by: cddbd v1.5.1PL0 Copyright (c) Steve Scherf et al.
# Submitted via: CDex 1.51
#
DISCID=1d039b03
DTITLE=田中美奈子 - LAST GRADUATION
DYEAR=1993
DGENRE=JPop
TTITLE0=LAST GRADUATION
TTITLE1=風にのって
TTITLE2=LAST GRADUATION(カラオケ)
EXTD=YEAR: 1993
EXTT0=
EXTT1=
EXTT2=
PLAYORDER=
